<svg width="71" height="18" viewBox="0 0 71 18" fill="none" xmlns="http://www.w3.org/2000/svg">
<path d="M22.5745 12.2369C22.5119 12.2369 22.4586 12.215 22.4148 12.1712C22.3709 12.1273 22.349 12.0741 22.349 12.0114V5.8849C22.349 5.81599 22.3709 5.76274 22.4148 5.72515C22.4586 5.6813 22.5119 5.65938 22.5745 5.65938H23.4578C23.5267 5.65938 23.5799 5.6813 23.6175 5.72515C23.6614 5.76274 23.6833 5.81599 23.6833 5.8849V11.1094H26.662C26.7309 11.1094 26.7873 11.1313 26.8311 11.1751C26.875 11.219 26.8969 11.2722 26.8969 11.3349V12.0114C26.8969 12.0741 26.875 12.1273 26.8311 12.1712C26.7873 12.215 26.7309 12.2369 26.662 12.2369H22.5745ZM29.115 12.3309C28.7955 12.3309 28.5011 12.2683 28.2317 12.143C27.9686 12.0114 27.7588 11.836 27.6022 11.6168C27.4518 11.3975 27.3766 11.1563 27.3766 10.8932C27.3766 10.4673 27.5489 10.1227 27.8935 9.85962C28.238 9.59652 28.711 9.41798 29.3123 9.32402L30.5997 9.13609V8.93876C30.5997 8.6694 30.5307 8.4658 30.3929 8.32799C30.2551 8.19017 30.0359 8.12127 29.7352 8.12127C29.5284 8.12127 29.3624 8.15885 29.2372 8.23402C29.1119 8.3092 29.0085 8.3875 28.9271 8.46894C28.8519 8.54411 28.8018 8.59422 28.7767 8.61928C28.7517 8.69445 28.7047 8.73204 28.6358 8.73204H27.9029C27.8465 8.73204 27.7964 8.71325 27.7525 8.67566C27.7149 8.63807 27.6961 8.58796 27.6961 8.52532C27.7024 8.36871 27.7776 8.19331 27.9216 7.99911C28.072 7.79865 28.3006 7.62638 28.6076 7.4823C28.9145 7.33196 29.2935 7.25679 29.7446 7.25679C30.4838 7.25679 31.0225 7.42279 31.3608 7.7548C31.699 8.08681 31.8682 8.52218 31.8682 9.06092V12.0114C31.8682 12.0741 31.8463 12.1273 31.8024 12.1712C31.7648 12.215 31.7116 12.2369 31.6427 12.2369H30.8628C30.8001 12.2369 30.7469 12.215 30.703 12.1712C30.6592 12.1273 30.6372 12.0741 30.6372 12.0114V11.645C30.4994 11.8454 30.3052 12.0114 30.0547 12.143C29.8041 12.2683 29.4909 12.3309 29.115 12.3309ZM29.4345 11.4288C29.779 11.4288 30.0609 11.3161 30.2802 11.0906C30.4994 10.865 30.609 10.5393 30.609 10.1133V9.9254L29.6694 10.0757C28.949 10.1885 28.5888 10.4297 28.5888 10.7993C28.5888 10.9997 28.6702 11.1563 28.8331 11.2691C29.0022 11.3756 29.2027 11.4288 29.4345 11.4288ZM34.9339 12.3309C34.4578 12.3309 34.0601 12.2589 33.7406 12.1148C33.4211 11.9707 33.1831 11.8047 33.0264 11.6168C32.8761 11.4226 32.8009 11.2566 32.8009 11.1188C32.8009 11.0561 32.8197 11.006 32.8573 10.9684C32.9012 10.9308 32.9513 10.912 33.0077 10.912H33.7782C33.8283 10.912 33.8721 10.9371 33.9097 10.9872C33.941 11.0123 34.0099 11.0718 34.1164 11.1657C34.2292 11.2597 34.3545 11.3349 34.4923 11.3913C34.6364 11.4414 34.793 11.4664 34.9621 11.4664C35.2127 11.4664 35.4163 11.4194 35.5729 11.3255C35.7295 11.2252 35.8078 11.0843 35.8078 10.9026C35.8078 10.7773 35.7702 10.6771 35.6951 10.6019C35.6261 10.5205 35.4977 10.4485 35.3098 10.3858C35.1281 10.3169 34.8525 10.2417 34.4829 10.1603C33.9504 10.0476 33.5558 9.87528 33.2989 9.6435C33.0484 9.41172 32.9231 9.10477 32.9231 8.72264C32.9231 8.47207 32.9983 8.23716 33.1486 8.0179C33.2989 7.79239 33.5213 7.61072 33.8158 7.47291C34.1164 7.32883 34.4735 7.25679 34.887 7.25679C35.3129 7.25679 35.6794 7.32569 35.9863 7.46351C36.2933 7.59506 36.5251 7.7548 36.6817 7.94273C36.8446 8.13066 36.926 8.29667 36.926 8.44075C36.926 8.49713 36.9041 8.54724 36.8602 8.59109C36.8226 8.62868 36.7757 8.64747 36.7193 8.64747H36.0145C35.9456 8.64747 35.8924 8.62241 35.8548 8.5723C35.8109 8.54098 35.7389 8.4846 35.6387 8.40316C35.5447 8.31546 35.4382 8.24655 35.3192 8.19644C35.2002 8.14632 35.0561 8.12127 34.887 8.12127C34.6552 8.12127 34.4766 8.17138 34.3514 8.27161C34.2261 8.37184 34.1634 8.50339 34.1634 8.66626C34.1634 8.77902 34.1916 8.87299 34.248 8.94816C34.3106 9.02333 34.4328 9.09537 34.6145 9.16428C34.7961 9.22692 35.0686 9.2927 35.432 9.36161C36.5595 9.58086 37.1233 10.0726 37.1233 10.8369C37.1233 11.2816 36.9291 11.6418 36.5407 11.9175C36.1586 12.1931 35.623 12.3309 34.9339 12.3309ZM38.3186 12.2369C38.2559 12.2369 38.2027 12.215 38.1589 12.1712C38.115 12.1273 38.0931 12.0741 38.0931 12.0114V5.79093C38.0931 5.72202 38.115 5.66878 38.1589 5.63119C38.2027 5.58734 38.2559 5.56541 38.3186 5.56541H39.1079C39.1768 5.56541 39.2301 5.58734 39.2676 5.63119C39.3115 5.66878 39.3334 5.72202 39.3334 5.79093V12.0114C39.3334 12.0741 39.3115 12.1273 39.2676 12.1712C39.2301 12.215 39.1768 12.2369 39.1079 12.2369H38.3186ZM42.6938 12.3309C41.9922 12.3309 41.4347 12.1304 41.0213 11.7295C40.6141 11.3286 40.398 10.7586 40.3729 10.0194L40.3635 9.78445C40.3635 9.00141 40.5671 8.38437 40.9743 7.93334C41.3877 7.4823 41.9578 7.25679 42.6844 7.25679C43.4299 7.25679 44.0031 7.4823 44.404 7.93334C44.8112 8.38437 45.0148 8.98574 45.0148 9.73747V9.93479C45.0148 9.99744 44.9929 10.0507 44.949 10.0945C44.9052 10.1384 44.8488 10.1603 44.7799 10.1603H41.6602V10.2355C41.6728 10.5863 41.7667 10.8776 41.9421 11.1094C42.1238 11.3349 42.3712 11.4476 42.6844 11.4476C43.0415 11.4476 43.3328 11.3036 43.5583 11.0154C43.6147 10.9465 43.6586 10.9058 43.6899 10.8932C43.7212 10.8744 43.7744 10.865 43.8496 10.865H44.6765C44.7329 10.865 44.7799 10.8807 44.8175 10.912C44.8613 10.9434 44.8832 10.9872 44.8832 11.0436C44.8832 11.1939 44.7924 11.3725 44.6107 11.5792C44.4353 11.7796 44.1816 11.955 43.8496 12.1054C43.5176 12.2557 43.1323 12.3309 42.6938 12.3309ZM43.7181 9.36161V9.34281C43.7181 8.97322 43.6241 8.67879 43.4362 8.45954C43.2545 8.23402 43.0039 8.12127 42.6844 8.12127C42.365 8.12127 42.1144 8.23402 41.9327 8.45954C41.7511 8.67879 41.6602 8.97322 41.6602 9.34281V9.36161H43.7181ZM47.8725 12.3309C47.3964 12.3309 46.9986 12.2589 46.6791 12.1148C46.3597 11.9707 46.1216 11.8047 45.965 11.6168C45.8147 11.4226 45.7395 11.2566 45.7395 11.1188C45.7395 11.0561 45.7583 11.006 45.7959 10.9684C45.8397 10.9308 45.8898 10.912 45.9462 10.912H46.7167C46.7668 10.912 46.8107 10.9371 46.8483 10.9872C46.8796 11.0123 46.9485 11.0718 47.055 11.1657C47.1678 11.2597 47.293 11.3349 47.4309 11.3913C47.5749 11.4414 47.7315 11.4664 47.9007 11.4664C48.1513 11.4664 48.3549 11.4194 48.5115 11.3255C48.6681 11.2252 48.7464 11.0843 48.7464 10.9026C48.7464 10.7773 48.7088 10.6771 48.6336 10.6019C48.5647 10.5205 48.4363 10.4485 48.2484 10.3858C48.0667 10.3169 47.7911 10.2417 47.4215 10.1603C46.889 10.0476 46.4943 9.87528 46.2375 9.6435C45.9869 9.41172 45.8616 9.10477 45.8616 8.72264C45.8616 8.47207 45.9368 8.23716 46.0872 8.0179C46.2375 7.79239 46.4599 7.61072 46.7543 7.47291C47.055 7.32883 47.4121 7.25679 47.8255 7.25679C48.2515 7.25679 48.618 7.32569 48.9249 7.46351C49.2319 7.59506 49.4636 7.7548 49.6202 7.94273C49.7831 8.13066 49.8646 8.29667 49.8646 8.44075C49.8646 8.49713 49.8426 8.54724 49.7988 8.59109C49.7612 8.62868 49.7142 8.64747 49.6578 8.64747H48.9531C48.8842 8.64747 48.8309 8.62241 48.7934 8.5723C48.7495 8.54098 48.6775 8.4846 48.5772 8.40316C48.4833 8.31546 48.3768 8.24655 48.2578 8.19644C48.1387 8.14632 47.9947 8.12127 47.8255 8.12127C47.5937 8.12127 47.4152 8.17138 47.2899 8.27161C47.1646 8.37184 47.102 8.50339 47.102 8.66626C47.102 8.77902 47.1302 8.87299 47.1866 8.94816C47.2492 9.02333 47.3713 9.09537 47.553 9.16428C47.7347 9.22692 48.0072 9.2927 48.3705 9.36161C49.4981 9.58086 50.0619 10.0726 50.0619 10.8369C50.0619 11.2816 49.8677 11.6418 49.4793 11.9175C49.0972 12.1931 48.5616 12.3309 47.8725 12.3309ZM52.9203 12.2369C52.8138 12.2369 52.7261 12.2119 52.6572 12.1618C52.5946 12.1054 52.5507 12.0365 52.5257 11.955L50.6276 5.94127L50.6088 5.85671C50.6088 5.80659 50.6276 5.76274 50.6652 5.72515C50.709 5.6813 50.7591 5.65938 50.8155 5.65938H52.0465C52.1404 5.65938 52.2156 5.68757 52.272 5.74395C52.3346 5.79406 52.3753 5.85044 52.3941 5.91308L53.6721 10.1603L54.9594 5.91308C54.9782 5.84418 55.0158 5.78467 55.0721 5.73455C55.1348 5.68444 55.2131 5.65938 55.307 5.65938H56.538C56.5944 5.65938 56.6414 5.6813 56.6789 5.72515C56.7165 5.76274 56.7353 5.80659 56.7353 5.85671C56.7353 5.88803 56.7322 5.91622 56.7259 5.94127L54.8184 11.955C54.7996 12.0365 54.7558 12.1054 54.6869 12.1618C54.6242 12.2119 54.5397 12.2369 54.4332 12.2369H52.9203ZM57.8278 12.2369C57.7652 12.2369 57.7088 12.215 57.6587 12.1712C57.6148 12.121 57.5929 12.0647 57.5929 12.002V5.90369C57.5929 5.83478 57.6148 5.7784 57.6587 5.73455C57.7025 5.68444 57.7589 5.65938 57.8278 5.65938H60.487C61.3014 5.65938 61.9404 5.84418 62.4039 6.21377C62.8675 6.58337 63.0993 7.12524 63.0993 7.83937C63.0993 8.55351 62.8675 9.08911 62.4039 9.44617C61.9404 9.79698 61.3014 9.97238 60.487 9.97238H59.4158V12.002C59.4158 12.0647 59.3939 12.121 59.35 12.1712C59.3062 12.215 59.2498 12.2369 59.1809 12.2369H57.8278ZM60.44 8.62868C60.6969 8.62868 60.8973 8.5629 61.0414 8.43135C61.1918 8.29353 61.2669 8.09308 61.2669 7.82997C61.2669 7.58566 61.198 7.38834 61.0602 7.23799C60.9287 7.08765 60.7219 7.01248 60.44 7.01248H59.3876V8.62868H60.44ZM64.2053 12.2369C64.1427 12.2369 64.0863 12.215 64.0362 12.1712C63.9923 12.121 63.9704 12.0647 63.9704 12.002V5.90369C63.9704 5.83478 63.9923 5.7784 64.0362 5.73455C64.08 5.68444 64.1364 5.65938 64.2053 5.65938H65.2671C65.4112 5.65938 65.5177 5.71889 65.5866 5.83791L67.8042 9.34281V5.90369C67.8042 5.83478 67.8261 5.7784 67.87 5.73455C67.9138 5.68444 67.9702 5.65938 68.0391 5.65938H69.2325C69.3014 5.65938 69.3577 5.68444 69.4016 5.73455C69.4454 5.7784 69.4674 5.83478 69.4674 5.90369V11.9926C69.4674 12.0615 69.4454 12.121 69.4016 12.1712C69.3577 12.215 69.3014 12.2369 69.2325 12.2369H68.1707C68.0266 12.2369 67.9201 12.1774 67.8512 12.0584L65.643 8.69445V12.002C65.643 12.0709 65.6179 12.1273 65.5678 12.1712C65.524 12.215 65.4676 12.2369 65.3987 12.2369H64.2053Z" fill="#0B132A"/>
<path d="M15.1075 6.77546L15.0973 6.76523C15.0965 6.76466 15.0958 6.76389 15.0954 6.76301L8.69594 0.363403L2.29656 6.76284C2.29583 6.76359 2.29467 6.76506 2.29467 6.76506L2.28411 6.77529C1.30556 7.75934 0.684004 9.04225 0.518265 10.4201C0.352525 11.798 0.652109 13.1917 1.36939 14.3798C2.08667 15.5678 3.18048 16.4821 4.47696 16.977C5.77342 17.472 7.19815 17.5194 8.52463 17.1116C8.63626 17.0775 8.75556 17.0775 8.86719 17.1116C10.1936 17.5192 11.6182 17.4718 12.9146 16.9768C14.211 16.4817 15.3047 15.5676 16.0219 14.3796C16.7392 13.1916 17.0388 11.798 16.8731 10.4202C16.7074 9.04242 16.086 7.75951 15.1075 6.77546ZM4.5721 10.9955C4.54095 11.0266 4.51624 11.0636 4.49939 11.1043C4.48253 11.145 4.47386 11.1886 4.47387 11.2326C4.48525 12.3621 4.80446 13.467 5.39711 14.4286C5.41058 14.4504 5.4168 14.476 5.41489 14.5015C5.41298 14.527 5.40304 14.5513 5.38648 14.5709C5.36993 14.5905 5.34761 14.6043 5.32272 14.6104C5.29783 14.6165 5.27165 14.6146 5.24792 14.6049C4.80237 14.4175 4.39762 14.1451 4.05629 13.8029C3.35678 13.1033 2.96354 12.1546 2.9629 11.1653C2.96227 10.1759 3.3543 9.22677 4.05291 8.52629L8.69594 3.88368L13.3387 8.52629C14.0375 9.22669 14.4296 10.1759 14.429 11.1653C14.4284 12.1546 14.0351 13.1033 13.3355 13.8029C12.9942 14.1451 12.5895 14.4175 12.144 14.6049C12.1202 14.6146 12.094 14.6165 12.0691 14.6104C12.0443 14.6043 12.0219 14.5904 12.0053 14.5709C11.9888 14.5513 11.9788 14.527 11.9769 14.5014C11.975 14.4759 11.9812 14.4503 11.9947 14.4285C12.5875 13.467 12.9068 12.3621 12.9184 11.2326C12.9184 11.1886 12.9096 11.145 12.8927 11.1042C12.8758 11.0635 12.851 11.0265 12.8197 10.9954L10.6237 8.66604C10.6018 8.64778 10.5743 8.63778 10.5457 8.63778C10.5173 8.63778 10.4897 8.64778 10.4679 8.66604C10.446 8.68422 10.4313 8.70959 10.4262 8.7376C10.4211 8.76561 10.4259 8.79445 10.44 8.81923C11.2929 10.3627 10.5595 12.5797 9.33637 13.8029L9.32992 13.8094C9.16111 13.9764 8.93321 14.07 8.69578 14.0699C8.4583 14.0698 8.23047 13.976 8.06178 13.809L8.05583 13.8029C6.83229 12.5797 6.09924 10.3629 6.9523 8.81957C6.96632 8.79478 6.97121 8.76594 6.9661 8.73793C6.96101 8.70991 6.94624 8.68455 6.92438 8.66637C6.90253 8.64811 6.87497 8.63811 6.8465 8.63811C6.81804 8.63811 6.79047 8.64811 6.76862 8.66637L4.5721 10.9955Z" fill="#F53838"/>
</svg>
